<?xml version="1.0" encoding="UTF-8" standalone="no"?>
<!DOCTYPE svg PUBLIC "-//W3C//DTD SVG 1.1//EN"
 "http://www.w3.org/Graphics/SVG/1.1/DTD/svg11.dtd">
<!-- Generated by graphviz version 2.40.1 (20161225.0304)
 -->
<!-- Title: state transitions Pages: 1 -->
<svg width="224pt" height="282pt"
 viewBox="0.00 0.00 224.14 282.00" xmlns="http://www.w3.org/2000/svg" xmlns:xlink="http://www.w3.org/1999/xlink">
<g id="graph0" class="graph" transform="scale(1 1) rotate(0) translate(4 278)">
<title>state transitions</title>
<polygon fill="#ffffff" stroke="transparent" points="-4,4 -4,-278 220.138,-278 220.138,4 -4,4"/>
<g id="clust1" class="cluster state regular">
<title>cluster_state_d</title>
<path fill="none" stroke="#000000" stroke-width="2" d="M20,-8C20,-8 192,-8 192,-8 198,-8 204,-14 204,-20 204,-20 204,-254 204,-254 204,-260 198,-266 192,-266 192,-266 20,-266 20,-266 14,-266 8,-260 8,-254 8,-254 8,-20 8,-20 8,-14 14,-8 20,-8"/>
<text text-anchor="start" x="86.8236" y="-247.2" font-family="Helvetica,sans-Serif" font-size="12.00" fill="#000000">state_d</text>
</g>
<!-- state_d -->
<!-- IDLE -->
<g id="node2" class="node state regular">
<title>IDLE</title>
<polygon fill="#ffffff" fill-opacity="0.003922" stroke="transparent" stroke-width="2" points="124,-228 68,-228 68,-192 124,-192 124,-228"/>
<text text-anchor="start" x="82.6644" y="-206.2" font-family="Helvetica,sans-Serif" font-size="12.00" fill="#000000">IDLE</text>
<path fill="none" stroke="#000000" stroke-width="2" d="M80.3333,-193C80.3333,-193 111.6667,-193 111.6667,-193 117.3333,-193 123,-198.6667 123,-204.3333 123,-204.3333 123,-215.6667 123,-215.6667 123,-221.3333 117.3333,-227 111.6667,-227 111.6667,-227 80.3333,-227 80.3333,-227 74.6667,-227 69,-221.3333 69,-215.6667 69,-215.6667 69,-204.3333 69,-204.3333 69,-198.6667 74.6667,-193 80.3333,-193"/>
</g>
<!-- SAMPLE -->
<g id="node3" class="node state regular">
<title>SAMPLE</title>
<polygon fill="#ffffff" fill-opacity="0.003922" stroke="transparent" stroke-width="2" points="86,-146 16,-146 16,-110 86,-110 86,-146"/>
<text text-anchor="start" x="26.6616" y="-124.2" font-family="Helvetica,sans-Serif" font-size="12.00" fill="#000000">SAMPLE</text>
<path fill="none" stroke="#000000" stroke-width="2" d="M28.3333,-111C28.3333,-111 73.6667,-111 73.6667,-111 79.3333,-111 85,-116.6667 85,-122.3333 85,-122.3333 85,-133.6667 85,-133.6667 85,-139.3333 79.3333,-145 73.6667,-145 73.6667,-145 28.3333,-145 28.3333,-145 22.6667,-145 17,-139.3333 17,-133.6667 17,-133.6667 17,-122.3333 17,-122.3333 17,-116.6667 22.6667,-111 28.3333,-111"/>
</g>
<!-- IDLE&#45;&gt;SAMPLE -->
<g id="edge1" class="edge transition">
<title>IDLE&#45;&gt;SAMPLE</title>
<path fill="none" stroke="#000000" d="M86.013,-191.8015C80.0705,-180.973 72.4205,-167.033 65.7878,-154.9466"/>
<polygon fill="#000000" stroke="#000000" points="68.8384,-153.2304 60.959,-146.1476 62.7017,-156.5981 68.8384,-153.2304"/>
<text text-anchor="start" x="76" y="-166" font-family="Helvetica,sans-Serif" font-size="10.00" fill="#000000">start_i &#160;&#160;</text>
</g>
<!-- CONVERT -->
<g id="node4" class="node state regular">
<title>CONVERT</title>
<polygon fill="#ffffff" fill-opacity="0.003922" stroke="transparent" stroke-width="2" points="125,-52 45,-52 45,-16 125,-16 125,-52"/>
<text text-anchor="start" x="55.6702" y="-30.2" font-family="Helvetica,sans-Serif" font-size="12.00" fill="#000000">CONVERT</text>
<path fill="none" stroke="#000000" stroke-width="2" d="M57.3333,-17C57.3333,-17 112.6667,-17 112.6667,-17 118.3333,-17 124,-22.6667 124,-28.3333 124,-28.3333 124,-39.6667 124,-39.6667 124,-45.3333 118.3333,-51 112.6667,-51 112.6667,-51 57.3333,-51 57.3333,-51 51.6667,-51 46,-45.3333 46,-39.6667 46,-39.6667 46,-28.3333 46,-28.3333 46,-22.6667 51.6667,-17 57.3333,-17"/>
</g>
<!-- SAMPLE&#45;&gt;CONVERT -->
<g id="edge2" class="edge transition">
<title>SAMPLE&#45;&gt;CONVERT</title>
<path fill="none" stroke="#000000" d="M49.4282,-109.7832C49.0736,-97.7704 49.9345,-81.927 55.221,-69 56.4592,-65.9723 58.0646,-63.0167 59.8878,-60.1877"/>
<polygon fill="#000000" stroke="#000000" points="62.7145,-62.2519 65.8617,-52.1353 57.0926,-58.0812 62.7145,-62.2519"/>
<text text-anchor="middle" x="56.3895" y="-78" font-family="Helvetica,sans-Serif" font-size="10.00" fill="#000000"> </text>
</g>
<!-- CONVERT&#45;&gt;IDLE -->
<g id="edge4" class="edge transition">
<title>CONVERT&#45;&gt;IDLE</title>
<path fill="none" stroke="#000000" d="M125.071,-50.6239C132.2497,-55.4652 138.7795,-61.5237 143,-69 164.0122,-106.2214 138.1534,-154.3091 117.283,-183.6164"/>
<polygon fill="#000000" stroke="#000000" points="114.4249,-181.5949 111.2982,-191.7179 120.0553,-185.7542 114.4249,-181.5949"/>
<text text-anchor="start" x="150" y="-131" font-family="Helvetica,sans-Serif" font-size="10.00" fill="#000000">not (start_i) &#160;&#160;</text>
<text text-anchor="start" x="150" y="-119" font-family="Helvetica,sans-Serif" font-size="10.00" fill="#000000">mask_q == 1 &#160;&#160;</text>
</g>
<!-- CONVERT&#45;&gt;SAMPLE -->
<g id="edge3" class="edge transition">
<title>CONVERT&#45;&gt;SAMPLE</title>
<path fill="none" stroke="#000000" d="M78.4646,-52.0685C73.531,-65.7084 66.673,-84.6688 61.0443,-100.2305"/>
<polygon fill="#000000" stroke="#000000" points="57.6656,-99.2816 57.5555,-109.8759 64.2483,-101.6626 57.6656,-99.2816"/>
<text text-anchor="start" x="72" y="-84" font-family="Helvetica,sans-Serif" font-size="10.00" fill="#000000">start_i &#160;&#160;</text>
<text text-anchor="start" x="72" y="-72" font-family="Helvetica,sans-Serif" font-size="10.00" fill="#000000">mask_q == 1 &#160;&#160;</text>
</g>
</g>
</svg>
