<svg xmlns="http://www.w3.org/2000/svg" xmlns:xlink="http://www.w3.org/1999/xlink" width="2548" height="1261" version="1.1">
<style type="text/css">
.l0{
  fill: #000000;
  stroke: #000000;
  stroke-linecap:round;
  stroke-linejoin:round;
  stroke-width: 12.2192;
}
.l1{
  fill: #00ccee;
  stroke: #00ccee;
  stroke-linecap:round;
  stroke-linejoin:round;
  stroke-width: 12.2192;
}
.l2{
  fill: #4f4f4f; fill-opacity: 0.2;
  stroke: #4f4f4f;
  stroke-linecap:round;
  stroke-linejoin:round;
  stroke-width: 12.2192;
}
.l3{
  fill: #cccccc; fill-opacity: 0.5;
  stroke: #cccccc;
  stroke-linecap:round;
  stroke-linejoin:round;
  stroke-width: 12.2192;
}
.l4{
  fill: #88dd00;
  stroke: #88dd00;
  stroke-linecap:round;
  stroke-linejoin:round;
  stroke-width: 12.2192;
}
.l5{
  fill: #bb2200;
  stroke: #bb2200;
  stroke-linecap:round;
  stroke-linejoin:round;
  stroke-width: 12.2192;
}
.l6{
  fill: #00ccee; fill-opacity: 0.5;
  stroke: #00ccee;
  stroke-linecap:round;
  stroke-linejoin:round;
  stroke-width: 12.2192;
}
.l7{
  fill: #ff0000; fill-opacity: 0.5;
  stroke: #ff0000;
  stroke-linecap:round;
  stroke-linejoin:round;
  stroke-width: 12.2192;
}
.l8{
  fill: #ffff00; fill-opacity: 0.5;
  stroke: #ffff00;
  stroke-linecap:round;
  stroke-linejoin:round;
  stroke-width: 12.2192;
}
.l9{
  fill: #ffffff; fill-opacity: 0.5;
  stroke: #ffffff;
  stroke-linecap:round;
  stroke-linejoin:round;
  stroke-width: 12.2192;
}
.l10{
  fill: #ff00ff;
  stroke: #ff00ff;
  stroke-linecap:round;
  stroke-linejoin:round;
  stroke-width: 12.2192;
}
.l11{
  fill: #00ff00; fill-opacity: 0.5;
  stroke: #00ff00;
  stroke-linecap:round;
  stroke-linejoin:round;
  stroke-width: 12.2192;
}
.l12{
  fill: #0044ff; fill-opacity: 0.5;
  stroke: #0044ff;
  stroke-linecap:round;
  stroke-linejoin:round;
  stroke-width: 12.2192;
}
.l13{
  fill: #aaaa00; fill-opacity: 0.5;
  stroke: #aaaa00;
  stroke-linecap:round;
  stroke-linejoin:round;
  stroke-width: 12.2192;
}
.l14{
  fill: #aaccaa; fill-opacity: 0.2;
  stroke: #aaccaa;
  stroke-linecap:round;
  stroke-linejoin:round;
  stroke-width: 12.2192;
}
.l15{
  fill: #ff7777; fill-opacity: 0.5;
  stroke: #ff7777;
  stroke-linecap:round;
  stroke-linejoin:round;
  stroke-width: 12.2192;
}
.l16{
  fill: #bfff81; fill-opacity: 0.5;
  stroke: #bfff81;
  stroke-linecap:round;
  stroke-linejoin:round;
  stroke-width: 12.2192;
}
.l17{
  fill: #00ffcc; fill-opacity: 0.2;
  stroke: #00ffcc;
  stroke-linecap:round;
  stroke-linejoin:round;
  stroke-width: 12.2192;
}
.l18{
  fill: #ce0097; fill-opacity: 0.5;
  stroke: #ce0097;
  stroke-linecap:round;
  stroke-linejoin:round;
  stroke-width: 12.2192;
}
.l19{
  fill: #d2d46b; fill-opacity: 0.2;
  stroke: #d2d46b;
  stroke-linecap:round;
  stroke-linejoin:round;
  stroke-width: 12.2192;
}
.l20{
  fill: #ef6158; fill-opacity: 0.2;
  stroke: #ef6158;
  stroke-linecap:round;
  stroke-linejoin:round;
  stroke-width: 12.2192;
}
.l21{
  fill: #fdb200; fill-opacity: 0.2;
  stroke: #fdb200;
  stroke-linecap:round;
  stroke-linejoin:round;
  stroke-width: 12.2192;
}
text {font-family: Sans-Serif;}
</style>
<rect class="l0" x="0" y="0" width="2548" height="1261"/>
<path class="l4" d="M857.394 178.558L947.907 178.558"/>
<path class="l4" d="M947.907 178.558L970.535 246.443"/>
<path class="l4" d="M970.535 246.443L1015.79 110.673"/>
<path class="l4" d="M1015.79 110.673L1061.05 246.443"/>
<path class="l4" d="M1061.05 246.443L1106.3 110.673"/>
<path class="l4" d="M1106.3 110.673L1151.56 246.443"/>
<path class="l4" d="M1151.56 246.443L1196.82 110.673"/>
<path class="l4" d="M1196.82 110.673L1242.07 246.443"/>
<path class="l4" d="M1242.07 246.443L1287.33 110.673"/>
<path class="l4" d="M1287.33 110.673L1309.96 178.558"/>
<path class="l4" d="M1309.96 178.558L1400.47 178.558"/>
<path class="l4" d="M1332.59 201.186L1332.59 246.443"/>
<path class="l4" d="M1309.96 223.814L1355.22 223.814"/>
<path class="l4" d="M1762.52 857.405L1762.52 1083.69"/>
<path class="l4" d="M1762.52 540.61L1762.52 766.892"/>
<path class="l4" d="M1672.01 766.892L1853.04 766.892"/>
<path class="l4" d="M1672.01 857.405L1853.04 857.405"/>
<path class="l4" d="M1785.15 608.494L1830.41 608.494"/>
<path class="l4" d="M1807.78 585.866L1807.78 631.123"/>
<path class="l4" d="M1762.52 1083.69L1762.52 1196.83"/>
<path class="l4" d="M1717.27 1196.83L1807.78 1196.83"/>
<path class="l4" d="M1762.52 1242.09L1807.78 1196.83"/>
<path class="l4" d="M1717.27 1196.83L1762.52 1242.09"/>
<path class="l5" d="M1377.84 155.93L1423.1 155.93L1423.1 201.186L1377.84 201.186L1377.84 155.93z"/>
<path class="l5" d="M834.766 155.93L880.022 155.93L880.022 201.186L834.766 201.186L834.766 155.93z"/>
<path class="l5" d="M1739.9 517.981L1785.15 517.981L1785.15 563.238L1739.9 563.238L1739.9 517.981z"/>
<path class="l5" d="M1739.9 1061.06L1785.15 1061.06L1785.15 1106.32L1739.9 1106.32L1739.9 1061.06z"/>
<path class="l5" d="M1739.9 1061.06L1785.15 1061.06L1785.15 1106.32L1739.9 1106.32L1739.9 1061.06z"/>
<path class="l5" d="M2113.26 167.244L2135.89 167.244L2135.89 189.872L2113.26 189.872L2113.26 167.244z"/>
<path class="l5" d="M665.054 167.244L687.682 167.244L687.682 189.872L665.054 189.872L665.054 167.244z"/>
<text fill="#aaaa00"  xml:space="preserve" font-size="94.1335" transform="translate(1344.03, 88.045) rotate(270)" >1</text>
<text fill="#aaaa00"  xml:space="preserve" font-size="94.1335" transform="translate(959.351, 88.045) rotate(270)" >2</text>
<text fill="#cccccc"  xml:space="preserve" font-size="94.1335" transform="translate(1276.15, 439.327) rotate(270)" >R1</text>
<text fill="#cccccc"  xml:space="preserve" font-size="94.1335" transform="translate(1163.01, 549.327) rotate(270)" >100k</text>
<text fill="#cccccc"  xml:space="preserve" font-size="94.1335" transform="translate(1049.86, 545.327) rotate(270)" >m=1</text>
<text fill="#aaaa00"  xml:space="preserve" font-size="94.1335" transform="translate(1657.27, 660.025)" >1</text>
<text fill="#aaaa00"  xml:space="preserve" font-size="94.1335" transform="translate(1657.27, 1044.71)" >2</text>
<text fill="#cccccc"  xml:space="preserve" font-size="94.1335" transform="translate(1898.29, 727.91)" >C1</text>
<text fill="#cccccc"  xml:space="preserve" font-size="94.1335" transform="translate(1898.29, 841.051)" >16p</text>
<text fill="#cccccc"  xml:space="preserve" font-size="94.1335" transform="translate(1898.29, 954.192)" >m=1</text>
<text fill="#00ccee"  xml:space="preserve" font-size="94.1335" transform="translate(1830.41, 1214.42)" >GND</text>
<text fill="#00ccee"  xml:space="preserve" font-size="155.32" transform="translate(2192.46, 214.978)" >out</text>
<text fill="#00ccee"  xml:space="preserve" font-size="127.08" transform="translate(326.74, 136.872)" >unfilt</text>
<path class="l1" d="M1762.52 178.558L1762.52 540.61"/>
<path class="l1" d="M1400.47 178.558L1762.52 178.558"/>
<path class="l1" d="M1762.52 178.558L2124.58 178.558"/>
<path class="l1" d="M133.291 178.558L857.394 178.558"/>
<circle class="l1" cx="1762.52" cy="178.558" r="33.4898"/>
<circle class="l1" cx="1762.52" cy="178.558" r="33.4898"/>
<circle class="l1" cx="1762.52" cy="178.558" r="33.4898"/>
</svg>
